<svg width="45" height="50" viewBox="0 0 45 50" fill="none" xmlns="http://www.w3.org/2000/svg">
<path d="M45 15.5622C45 14.6586 44.5955 13.755 43.9888 13.0522L39.1348 8.23293C38.427 7.53012 37.618 7.22892 36.6067 7.22892C35.5955 7.22892 34.7865 7.63052 34.0787 8.23293L31.4494 10.8434L30.6405 9.93976V8.23293C30.6405 6.82731 29.6292 5.62249 28.2135 5.32129H28.1124V2.20884C28.1124 1.00402 27.1011 0 25.8876 0H19.1124C17.8989 0 16.8876 1.00402 16.8876 2.20884V5.32129H16.7865C15.3708 5.62249 14.3596 6.82731 14.3596 8.23293V9.93976L13.5506 10.743L10.9213 8.13253C10.2135 7.42972 9.40449 7.12851 8.39326 7.12851C7.38202 7.12851 6.57303 7.53012 5.86517 8.13253L1.01124 12.9518C0.303371 13.6546 0 14.4578 0 15.4618C0 16.4659 0.404494 17.2691 1.01124 17.9719L3.64045 20.5823L2.93258 21.2851C2.62921 21.5863 2.62921 21.9879 2.73034 22.2892L3.8427 24.498L1.11236 29.2169C1.01124 29.4177 1.01124 29.7189 1.11236 30.0201L6.47191 41.3655C6.57303 41.6667 6.8764 41.8675 7.2809 41.8675H11.1236V43.7751C11.1236 44.2771 11.5281 44.6787 12.0337 44.6787H13.6517V46.4859C13.6517 48.3936 15.2697 50 17.191 50H27.809C29.7303 50 31.3483 48.3936 31.3483 46.4859V44.6787H32.9663C33.4719 44.6787 33.8764 44.2771 33.8764 43.7751V41.8675H37.618C37.9213 41.8675 38.2247 41.6667 38.427 41.3655L43.7865 30.0201C43.8876 29.7189 43.8876 29.5181 43.7865 29.2169L41.0562 24.498L42.1685 22.2892C42.3708 21.9879 42.2697 21.5863 41.9663 21.2851L41.2584 20.5823L43.8876 17.9719C44.5955 17.3695 45 16.4659 45 15.5622ZM18.6067 2.20884C18.6067 1.90763 18.809 1.70683 19.1124 1.70683H25.8876C26.191 1.70683 26.3933 1.90763 26.3933 2.20884V5.32129H18.6067V2.20884ZM16.0787 8.23293C16.0787 7.53012 16.5843 7.02811 17.2921 7.02811H27.7079C28.4157 7.02811 28.9213 7.53012 28.9213 8.23293V9.43775H16.0787V8.23293ZM2.22472 16.8675C1.51685 16.1647 1.51685 14.9598 2.22472 14.257L7.07865 9.43775C7.38202 9.13655 7.88764 8.93574 8.39326 8.93574C8.89888 8.93574 9.30337 9.13655 9.70786 9.43775L12.3371 12.0482L4.85393 19.4779L2.22472 16.8675ZM11.1236 40.261H7.78652L2.83146 29.7189L4.75281 26.3052L4.85393 26.506L11.0225 38.3534V40.261H11.1236ZM29.5281 46.4859C29.5281 47.49 28.7191 48.2932 27.7079 48.2932H17.0899C16.0787 48.2932 15.2697 47.49 15.2697 46.4859V44.6787H29.5281V46.4859ZM32.1573 37.6506C32.0562 37.751 32.0562 37.9518 32.0562 38.0522V42.9719H27.3034L27.5056 42.7711C29.0225 41.3655 29.9326 39.3574 30.0337 37.249H30.1348H30.0337V29.9197C30.0337 29.4177 29.6292 29.1165 29.2247 29.1165C28.7191 29.1165 28.3146 29.5181 28.3146 29.9197V32.4297L28.1124 32.2289C26.6966 30.6225 24.573 29.7189 22.4494 29.7189C21.9438 29.7189 21.5393 30.1205 21.5393 30.5221C21.5393 31.0241 21.9438 31.4257 22.3483 31.4257C24.3708 31.4257 26.3933 32.5301 27.4045 34.2369C28.2135 35.5422 28.4157 37.1486 28.0112 38.6546C27.6067 40.1606 26.6966 41.4659 25.2809 42.1687C24.4719 42.6707 23.5618 42.8715 22.6517 42.9719H21.9438C20.0225 42.8715 18.2022 41.7671 17.2921 40.1606C16.2809 38.5542 16.1798 36.5462 16.9888 34.8394C17.0899 34.6386 17.0899 34.4378 16.9888 34.2369C16.8876 34.0361 16.7865 33.8353 16.4831 33.7349C16.2809 33.6345 16.0787 33.6345 15.8764 33.7349C15.6742 33.8353 15.4719 33.9357 15.3708 34.1365C15.2697 34.2369 15.2697 34.4378 15.1685 34.5382L15.0674 34.8394L12.3371 27.008H12.5393C15.0674 27.51 17.2921 25.502 17.2921 23.0924C17.2921 21.8876 16.7865 20.6827 15.7753 19.9799L15.573 19.8795L23.5618 16.9679V17.1687V17.3695C23.5618 19.1767 24.9775 20.5823 26.7978 20.5823C27.3034 20.5823 27.7079 20.4819 28.1124 20.2811L28.3146 20.1807V22.1888C28.3146 22.6908 28.7191 23.0924 29.2247 23.0924C29.7303 23.0924 30.0337 22.6908 30.0337 22.1888V17.3695C30.0337 15.5622 28.618 14.1566 26.7978 14.1566C26.2921 14.1566 25.6854 14.257 25.2809 14.5582L11.9326 19.3775C10.3146 19.9799 9.20225 21.4859 9.20225 23.0924C9.20225 23.5944 9.30337 24.1968 9.50562 24.6988L15.1685 39.4578C15.3708 39.9598 15.573 40.5623 15.8764 40.9639C16.2809 41.6667 16.7865 42.2691 17.2921 42.7711L17.4944 42.9719H12.6404V38.0522C12.6404 37.9518 12.6404 37.751 12.5393 37.6506L4.55056 22.0884L15.573 11.1446H29.427L40.3483 21.988V22.0884L32.1573 37.6506ZM10.9213 23.0924C10.9213 21.7871 11.9326 20.7831 13.2472 20.7831C14.5618 20.7831 15.573 21.7871 15.573 23.0924C15.573 24.3976 14.5618 25.4016 13.2472 25.4016C12.0337 25.4016 10.9213 24.3976 10.9213 23.0924ZM25.2809 17.3695C25.2809 16.5663 25.9888 15.8635 26.7978 15.8635C27.6067 15.8635 28.3146 16.5663 28.3146 17.3695C28.3146 18.1727 27.6067 18.8755 26.7978 18.8755C25.9888 18.8755 25.2809 18.1727 25.2809 17.3695ZM41.9663 29.7189L37.1124 40.261H33.7753V38.3534L40.0449 26.4056L41.9663 29.7189ZM42.6742 16.8675L40.0449 19.4779L39.9438 19.3775L32.6629 11.9478L35.2921 9.33735C35.5955 9.03614 36.1011 8.83534 36.6067 8.83534C37.1124 8.83534 37.5169 9.03614 37.9213 9.33735L42.7753 14.1566C43.0787 14.4578 43.2809 14.9598 43.2809 15.4618C43.2809 16.0643 43.0787 16.4659 42.6742 16.8675Z" fill="white"/>
<path d="M19.5177 32.1286C19.0121 32.4298 18.5065 32.229 18.3042 31.8274C18.2031 31.6266 18.2031 31.4258 18.2031 31.225C18.3042 31.0242 18.4054 30.8234 18.6076 30.723C18.7087 30.6226 18.911 30.6226 19.0121 30.6226C19.3155 30.6226 19.6189 30.8234 19.72 31.0242C20.0233 31.4258 19.9222 31.9278 19.5177 32.1286Z" fill="white"/>
<path d="M22.449 33.5342C20.4266 33.5342 18.8086 35.1406 18.8086 37.1486C18.8086 39.1567 20.4266 40.7631 22.449 40.7631C24.4715 40.7631 26.0895 39.1567 26.0895 37.1486C26.0895 35.1406 24.4715 33.5342 22.449 33.5342ZM22.449 39.0563C21.4378 39.0563 20.5277 38.2531 20.5277 37.1486C20.5277 36.1446 21.3367 35.241 22.449 35.241C23.4603 35.241 24.3704 36.0442 24.3704 37.1486C24.3704 38.2531 23.4603 39.0563 22.449 39.0563Z" fill="white"/>
<path d="M14.1562 23.193C14.1562 23.695 13.7517 23.9962 13.246 23.9962C13.0438 23.9962 12.8416 23.8958 12.6393 23.695C12.4371 23.4942 12.3359 23.2934 12.3359 23.0926C12.3359 22.5906 12.7404 22.189 13.246 22.189C13.7517 22.3898 14.1562 22.691 14.1562 23.193Z" fill="white"/>
<path d="M30.0351 26.1043C30.0351 26.3051 29.9339 26.6063 29.7317 26.7067C29.4283 27.0079 28.8216 27.0079 28.5182 26.7067C28.316 26.5059 28.2148 26.3051 28.2148 26.1043C28.2148 25.9035 28.316 25.7027 28.5182 25.5019C28.7205 25.3011 28.9227 25.2007 29.125 25.2007C29.3272 25.2007 29.5295 25.3011 29.7317 25.5019C29.9339 25.6023 30.0351 25.8031 30.0351 26.1043Z" fill="white"/>
<path d="M40.3484 15.8634C40.0451 16.1647 39.4383 16.1647 39.135 15.8634L39.0338 15.763C38.8316 15.5622 38.7305 15.3614 38.7305 15.1606C38.7305 14.9598 38.8316 14.759 39.0338 14.5582C39.2361 14.3574 39.4383 14.3574 39.6406 14.3574C39.8428 14.3574 40.0451 14.4578 40.2473 14.6586L40.3484 14.759C40.6518 14.9598 40.6518 15.4618 40.3484 15.8634Z" fill="white"/>
<path d="M37.5187 12.9518C37.2153 13.253 36.6086 13.253 36.3052 12.9518H36.2041C35.9007 12.6506 35.9007 12.0482 36.2041 11.747C36.4063 11.5462 36.6086 11.4458 36.8108 11.4458C37.0131 11.4458 37.2153 11.5462 37.4176 11.747L37.5187 11.8474C37.8221 12.1486 37.8221 12.6506 37.5187 12.9518Z" fill="white"/>
<path d="M8.90063 12.3492C8.90063 12.55 8.79951 12.7508 8.59726 12.9516C8.29389 13.2528 7.68715 13.2528 7.38378 12.9516C7.08041 12.6504 7.08041 12.048 7.38378 11.7468L7.4849 11.6464C7.68715 11.4456 7.8894 11.3452 8.09164 11.3452C8.29389 11.3452 8.49614 11.4456 8.69838 11.6464C8.79951 11.8472 8.90063 12.048 8.90063 12.3492Z" fill="white"/>
<path d="M5.86635 15.7633C5.46186 16.165 4.85512 16.165 4.55175 15.8637C4.24838 15.4621 4.24838 14.9601 4.55175 14.6589L4.65287 14.5585C4.85512 14.3577 5.05736 14.2573 5.25961 14.2573C5.46186 14.2573 5.66411 14.3577 5.86635 14.4581C6.16972 14.8597 6.16972 15.4621 5.86635 15.7633Z" fill="white"/>
</svg>
