<svg width="42" height="50" viewBox="0 0 42 50" fill="none" xmlns="http://www.w3.org/2000/svg">
<path d="M41.3366 29.4534C40.9303 29.4534 40.5241 29.8583 40.5241 30.2632V31.5789L40.2194 31.4777L38.0865 31.0729H37.8834V30.7692C37.8834 28.9474 37.5787 27.2267 37.0709 25.5061L34.6334 18.4211C33.8208 16.0931 31.9927 14.3725 29.6567 13.7652C28.9458 13.5628 27.8286 13.3603 26.4067 13.1579H26.2035V10.1215H27.5239C28.5395 10.1215 29.4536 9.31174 29.4536 8.29959V3.94737C29.4536 1.72065 27.6254 0 25.391 0H16.8596C14.6252 0 12.7971 1.82186 12.7971 3.94737V8.19838C12.7971 9.21053 13.6096 10.0202 14.7268 10.0202H15.9456V13.0567H15.7424C14.3205 13.2591 13.2033 13.5628 12.4924 13.664C12.4924 13.664 12.3908 13.664 12.2893 13.7652C12.1877 13.7652 12.1877 13.8664 12.0861 13.8664H11.883V13.7652C9.3439 10.6275 7.61731 7.89474 6.60167 6.17409L6.39854 5.76923H7.21105C7.61731 5.76923 8.02356 5.46559 8.02356 4.95951C8.02356 4.45344 7.61731 4.1498 7.10949 4.1498H2.94536C2.5391 4.1498 2.13285 4.55466 2.13285 4.95951C2.13285 5.36437 2.43754 5.76923 2.94536 5.76923H4.57038L4.67195 5.87045C5.3829 7.08502 7.21105 10.4251 10.3595 14.3725L10.5627 14.5749L10.3595 14.7773C9.0392 15.6883 8.02356 16.9028 7.61731 18.3198L5.17977 25.4049C4.87508 26.2146 4.67195 27.2267 4.57038 28.1377V28.4413L4.26569 28.3401C3.45318 28.1377 2.64067 27.834 1.92972 27.5304L1.72659 27.4291V26.0121C1.72659 25.6073 1.32033 25.2024 0.914077 25.2024C0.507821 25.2024 0 25.6073 0 26.0121V30.2632C0 30.7692 0.304692 31.0729 0.710949 31.0729C1.11721 31.0729 1.52346 30.7692 1.52346 30.2632V29.251L1.82815 29.3522C2.5391 29.5547 3.25005 29.8583 3.961 30.0607H4.16413V30.2632C4.16413 30.3644 4.16413 30.4656 4.16413 30.4656C4.16413 30.5668 4.16413 30.5668 4.16413 30.668C4.16413 32.2875 4.46882 33.9069 4.87508 35.5263L4.97664 35.83H4.67195C3.14849 36.2348 1.92972 37.5506 1.92972 39.17C1.92972 40.7895 2.23441 44.9393 2.94536 46.7611L3.45318 47.8745C3.961 49.1903 5.28133 50 6.70323 50H35.2427C36.5631 50 37.6803 49.2915 38.2897 48.0769C39.3053 45.9514 39.8131 41.5992 39.8131 39.6761V39.17C39.8131 37.5506 38.6959 36.2348 37.0709 35.83H36.7662L36.8678 35.5263C37.0709 34.8178 37.274 34.2105 37.3756 33.4008V33.1984H37.5787C37.5787 33.1984 38.1881 33.1984 38.7975 33.1984H40.0163H40.3209V34.5142C40.3209 34.919 40.7272 35.3239 41.1335 35.3239C41.5397 35.3239 41.946 34.919 41.946 34.5142V30.2632C42.1491 29.8583 41.7428 29.4534 41.3366 29.4534ZM14.4221 8.40081V3.94737C14.4221 2.63158 15.4377 1.61943 16.7581 1.61943H25.2895C26.6098 1.61943 27.6254 2.63158 27.6254 3.94737V8.40081H14.4221ZM24.4769 10.0202V12.8543H24.1723C22.9535 12.753 21.9378 12.6518 21.0238 12.6518C20.1097 12.6518 19.0941 12.753 17.8753 12.8543H17.5706V10.0202H24.4769ZM13.508 15.081C16.1487 14.4737 18.6878 14.17 21.0238 14.17C24.2738 14.17 27.2192 14.7773 29.1489 15.1822C30.9771 15.6883 32.3989 17.004 33.0083 18.8259L35.4459 25.9109C35.9537 27.3279 36.1568 28.7449 36.1568 30.3644V30.668L35.8521 30.5668C35.0396 30.3644 34.3287 30.0607 33.6177 29.8583L33.5162 29.7571V29.5547C33.4146 28.4413 33.2115 27.5304 33.0083 26.7206L30.5708 19.6356C30.2661 18.7247 29.4536 18.0162 28.5395 17.7126C26.8129 17.3077 24.0707 16.7004 21.0238 16.7004C19.1956 16.7004 17.2659 16.9028 15.2346 17.3077H15.133L15.0315 17.2065C14.5237 16.5992 13.9143 16.0931 13.4065 15.3846L13.1018 15.081H13.508ZM31.7896 30.8704L31.9927 30.9717V31.0729C31.9927 31.1741 31.9927 31.1741 31.9927 31.2753V31.3765V31.5789H31.7896C26.2035 31.4777 17.9768 31.1741 10.5627 29.7571H10.3595V29.5547C10.4611 28.6437 10.5627 27.9352 10.8674 27.2267L13.3049 20.0405C13.4065 19.6356 13.8127 19.332 14.219 19.2308C14.3205 19.2308 14.4221 19.2308 14.5237 19.1296L14.7268 19.0283H14.8284L14.9299 19.1296C19.805 24.4939 25.5942 28.3401 31.7896 30.8704ZM16.4534 18.8259L16.9612 18.7247C18.3831 18.5223 19.7034 18.4211 21.0238 18.4211C23.8676 18.4211 26.4067 18.9271 28.1333 19.332C28.5395 19.4332 28.8442 19.7368 29.0473 20.1417L31.4849 27.2267C31.688 27.7328 31.7896 28.2389 31.7896 28.6437L31.8911 29.1498L31.4849 28.9474C26.3051 26.7206 21.43 23.3806 16.9612 19.1296L16.4534 18.8259ZM10.4611 31.4777C17.8753 32.7935 25.8988 33.1984 31.2817 33.1984H31.5864L31.4849 33.502C31.2817 34.3117 30.9771 34.919 30.6724 35.5263L29.1489 38.664V38.8664H28.9458C26.2035 38.2591 23.5629 37.9555 21.0238 37.9555C18.4847 37.9555 15.844 38.2591 13.1018 38.8664H12.8986V38.664L11.2736 35.5263C10.6642 34.3117 10.258 33.0972 10.1564 31.6802V31.3765L10.4611 31.4777ZM30.8755 39.0688L32.2974 36.336C32.7036 35.4251 33.1099 34.5142 33.313 33.502V33.2996H33.5162H33.6177H33.7193C34.4302 33.2996 35.0396 33.2996 35.649 33.2996H35.9537L35.8521 33.6032C35.7506 34.413 35.4459 35.2227 35.1412 36.0324V36.1336H35.0396C34.3287 36.4372 33.7193 37.0445 33.4146 37.6518L32.3989 39.5749L32.2974 39.7773H32.1958C31.8911 39.6761 31.4849 39.5749 31.0786 39.4737L30.7739 39.3725L30.8755 39.0688ZM5.99228 28.7449C6.09385 27.7328 6.29697 26.8219 6.60167 26.0121L9.0392 18.9271C9.44546 17.7126 10.258 16.7004 11.3752 15.9919L11.5783 15.8907L11.6799 16.0931C12.0861 16.5992 12.5939 17.1053 13.1018 17.7126L13.3049 17.915L13.0002 18.1174C12.2893 18.4211 11.7814 19.0283 11.4767 19.7368L9.0392 26.9231C8.83608 27.6316 8.63295 28.4413 8.53138 29.3522V29.6559L8.22669 29.5547C7.51574 29.4534 6.80479 29.251 6.09385 29.0486H5.89072L5.99228 28.7449ZM6.19541 30.668C6.80479 30.7692 7.61731 30.9717 8.32826 31.0729H8.53138V31.2753C8.63295 32.996 9.0392 34.7166 9.85172 36.2348L11.2736 38.9676L11.3752 39.2713L11.0705 39.3725C10.6642 39.4737 10.258 39.6761 9.95328 39.6761L9.75015 39.7773L9.64859 39.5749L8.63295 37.6518C8.32826 36.9433 7.71887 36.4372 7.00792 36.1336H6.90636V36.0324C6.29697 34.3117 5.89072 32.5911 5.89072 30.8704V30.5668L6.19541 30.668ZM38.2897 39.17V39.7773C38.2897 41.9028 37.7818 45.749 36.9693 47.3684C36.6646 47.9757 36.0553 48.3806 35.3443 48.3806H6.80479C6.09385 48.3806 5.3829 47.9757 5.07821 47.2672L4.57038 46.1539C4.06256 44.7368 3.75787 41.0931 3.75787 39.17C3.75787 38.1579 4.57038 37.3482 5.58603 37.3482C6.29697 37.3482 6.90636 37.753 7.21105 38.3603L8.53138 41.1943C8.63295 41.498 8.93764 41.5992 9.24233 41.5992C9.3439 41.5992 9.44546 41.5992 9.54702 41.498C9.54702 41.498 14.8284 39.4737 21.0238 39.4737C27.2192 39.4737 32.3989 41.498 32.5005 41.498C32.6021 41.498 32.7036 41.5992 32.8052 41.5992C33.1099 41.5992 33.4146 41.3968 33.5162 41.1943L34.938 38.4615C35.2427 37.8543 35.8521 37.4494 36.5631 37.4494C37.4772 37.4494 38.2897 38.1579 38.2897 39.17Z" fill="white"/>
<path d="M32.4008 44.3321C32.2992 44.5345 32.0961 44.6358 31.8929 44.737C31.7914 44.737 28.5413 45.8503 20.924 45.8503C13.4083 45.8503 10.1582 44.8382 9.95509 44.737C9.75196 44.6358 9.54883 44.5345 9.44727 44.3321C9.3457 44.1297 9.3457 43.9273 9.44727 43.7248C9.54883 43.4212 9.85352 43.2188 10.2598 43.2188C10.3613 43.2188 10.4629 43.2188 10.5645 43.2188C10.666 43.2188 13.9161 44.2309 20.924 44.2309C27.9319 44.2309 31.182 43.2188 31.3851 43.2188C31.4867 43.2188 31.5882 43.2188 31.6898 43.2188C31.9945 43.2188 32.4008 43.4212 32.5023 43.7248C32.5023 43.9273 32.5023 44.1297 32.4008 44.3321Z" fill="white"/>
</svg>
