<svg width="50" height="50" viewBox="0 0 50 50" fill="none" xmlns="http://www.w3.org/2000/svg">
<path d="M49.175 0.00942259C48.7245 0.0208044 48.3581 0.401424 48.3334 0.883364V1.0494C48.2715 2.61897 47.1891 3.9262 45.7417 4.17917L44.4717 4.40591C40.8949 5.0434 37.2752 5.36443 33.6492 5.36555H16.3509C12.7249 5.36443 9.10515 5.0434 5.52838 4.40591L4.25838 4.17917C2.81109 3.9262 1.72859 2.61897 1.66671 1.0494V0.883364C1.66192 0.390377 1.28484 -0.00508355 0.824629 4.94078e-05C0.364421 0.00529395 -0.00474554 0.409124 4.61227e-05 0.90211C4.61227e-05 0.970847 4.61227e-05 1.03869 4.61227e-05 1.10654L0.833379 44.6626C0.840671 45.0401 1.069 45.3718 1.40338 45.491L8.84671 48.1485L12.1275 49.9107C12.2436 49.9709 12.3711 50.0015 12.5 49.9999H37.5C37.629 50.0015 37.7565 49.9709 37.8725 49.9107L41.1534 48.153L48.5967 45.4954C48.9326 45.3757 49.1611 45.0417 49.1667 44.6626L50 1.10654C50 1.03869 50 0.970847 50 0.90211C50.0002 0.412583 49.632 0.0143324 49.175 0.00942259ZM19.1667 48.2146H12.6967L9.53921 46.5229C9.5039 46.5041 9.46744 46.488 9.43005 46.4747L2.48755 43.9957L1.74255 4.85582C2.38838 5.42123 3.1613 5.79516 3.98421 5.94044L5.25421 6.16718C8.92161 6.82074 12.6331 7.1497 16.3509 7.15093H19.1667V48.2146ZM29.1667 48.2146H20.8334V7.15093H29.1667V48.2146ZM47.5126 43.9957L40.57 46.4747C40.5327 46.488 40.4962 46.5041 40.4609 46.5229L37.3034 48.2146H30.8334V7.15093H33.6492C37.3684 7.15059 41.0812 6.82219 44.75 6.16897L46.0201 5.94223C46.843 5.79694 47.6159 5.42302 48.2617 4.85761L47.5126 43.9957Z" fill="white"/>
<path d="M10.2646 27.7259L5.26464 25.9405C4.82797 25.7847 4.35609 26.0376 4.21068 26.5054C4.18234 26.5964 4.16797 26.6917 4.16797 26.7877V41.0707C4.16786 41.4551 4.39755 41.7963 4.73797 41.9178L9.73797 43.7032C9.82297 43.7333 9.91182 43.7486 10.0013 43.7487C10.4615 43.7487 10.8346 43.349 10.8346 42.8561V28.573C10.8347 28.1886 10.6052 27.8474 10.2646 27.7259ZM9.16797 41.6179L5.83464 40.427V38.739L9.16797 39.9289V41.6179ZM9.16797 38.0462L5.83464 36.8563V35.1682L9.16797 36.3582V38.0462ZM9.16797 34.4755L5.83464 33.2855V31.5975L9.16797 32.7874V34.4755ZM9.16797 30.9047L5.83464 29.7148V28.0258L9.16797 29.2167V30.9047Z" fill="white"/>
<path d="M45.488 26.0637C45.2709 25.896 44.9919 25.8502 44.738 25.9405L39.738 27.7259C39.3976 27.8474 39.1679 28.1886 39.168 28.573V42.856C39.168 43.349 39.5411 43.7487 40.0013 43.7487C40.0908 43.7486 40.1796 43.7333 40.2646 43.7032L45.2646 41.9178C45.6051 41.7963 45.8347 41.455 45.8346 41.0706V26.7876C45.8345 26.5006 45.7055 26.2313 45.488 26.0637ZM44.168 40.427L40.8346 41.6179V39.9289L44.168 38.7389V40.427ZM44.168 36.8563L40.8346 38.0462V36.3581L44.168 35.1682V36.8563ZM44.168 33.2855L40.8346 34.4755V32.7874L44.168 31.5974V33.2855ZM44.168 29.7148L40.8346 30.9047V29.2166L44.168 28.0258V29.7148Z" fill="white"/>
</svg>
