<svg width="38" height="45" viewBox="0 0 38 45" fill="none" xmlns="http://www.w3.org/2000/svg">
<path d="M33.5933 0.109085C32.7035 0.333879 20.357 3.1438 17.1314 12.5851C15.9078 16.2942 16.3528 19.8909 16.3528 20.1157C17.0201 24.9488 19.8009 28.0959 20.9132 29.2199C19.1335 29.7818 14.9068 30.9058 9.679 29.6694C4.67368 28.4331 1.44803 25.6232 0.113281 24.2744C0.558199 21.5769 1.89295 16.0694 6.23089 10.7868C10.5688 5.50413 15.7966 3.36859 18.4661 2.24462C24.8062 -0.228106 30.4789 -0.115709 33.5933 0.109085Z" fill="#1A4AA1"/>
<path d="M0 28.0957C2.00213 30.1188 7.34113 35.0643 15.3496 35.8511C21.1336 36.4131 25.9164 34.5023 28.9196 33.266C32.7014 31.8048 35.4821 29.8941 37.373 28.5453C37.818 30.3436 38.1516 32.9288 37.9292 35.8511C37.818 38.8858 37.1506 41.3585 36.5944 43.1569C31.033 45.0676 24.3592 45.2924 21.1336 44.7304C16.7956 43.9437 11.4566 41.9205 6.56253 37.6494C2.6695 34.2775 0.889834 30.3436 0 28.0957Z" fill="#C91A12"/>
<path d="M27.9193 26.2988C31.9737 26.2988 35.2604 22.9775 35.2604 18.8806C35.2604 14.7836 31.9737 11.4624 27.9193 11.4624C23.8649 11.4624 20.5781 14.7836 20.5781 18.8806C20.5781 22.9775 23.8649 26.2988 27.9193 26.2988Z" stroke="#1A4AA1" stroke-miterlimit="10"/>
</svg>
