<svg width="13" height="13" viewBox="0 0 13 13" fill="none" xmlns="http://www.w3.org/2000/svg">
<path d="M3.93017 6.54131C4.46803 7.65204 5.36619 8.54789 6.4783 9.0829C6.56033 9.12174 6.65106 9.13855 6.74157 9.13168C6.83207 9.12481 6.91923 9.09448 6.99445 9.0437L8.62787 7.95257C8.70004 7.90363 8.78343 7.87376 8.87026 7.86576C8.95709 7.85777 9.04453 7.8719 9.12443 7.90684L12.1822 9.2201C12.2867 9.2636 12.374 9.34024 12.4307 9.43823C12.4873 9.53622 12.5102 9.65012 12.4958 9.7624C12.3989 10.5188 12.0297 11.214 11.4572 11.7179C10.8848 12.2218 10.1484 12.4998 9.38577 12.5C7.02912 12.5 4.76899 11.5638 3.10258 9.89742C1.43618 8.23101 0.5 5.97088 0.5 3.61423C0.500172 2.85162 0.778213 2.1152 1.2821 1.54277C1.78598 0.970338 2.48118 0.601122 3.2376 0.504207C3.34988 0.489785 3.46378 0.512671 3.56177 0.569339C3.65976 0.626008 3.7364 0.713317 3.7799 0.817823L5.09316 3.88211C5.12731 3.96074 5.1416 4.04656 5.13476 4.13202C5.12793 4.21747 5.10018 4.29993 5.05396 4.37213L3.96284 6.03168C3.91426 6.10674 3.88575 6.19301 3.88003 6.28223C3.87431 6.37146 3.89157 6.46066 3.93017 6.54131Z" fill="white" stroke="#86898D" stroke-linecap="round" stroke-linejoin="round"/>
</svg>
